<svg xmlns="http://www.w3.org/2000/svg" viewBox="0 0 226.85 78.88"><defs><style>.cls-1{fill:#e1251b;}</style></defs><g id="Capa_2" data-name="Capa 2"><g id="Capa_1-2" data-name="Capa 1"><path class="cls-1" d="M215.65,19.35h3.74V15.62h-3.74ZM208.19,4.42h3.73V.69h-3.73Zm0,7.46h3.73V8.15h-3.73Zm14.93-7.46h3.73V.69h-3.73Zm-7.47,7.46h3.74V8.15h-3.74Zm-7.46,7.47h3.73V15.62h-3.73Zm7.46-14.93h3.74V.69h-3.74Zm7.47,7.46h3.73V8.15h-3.73Zm0,7.47h3.73V15.62h-3.73ZM51.74,26.73c.6-5.65,3.32-8.64,8.51-8.64s8,3.19,8,8.64ZM60.65,12C49,12,44.42,19.82,44.42,29.73c0,11.37,5.92,18.15,18.16,18.15a25.13,25.13,0,0,0,10.77-2.13c.47-2.19.87-4.72,1.13-6.65a28.51,28.51,0,0,1-11.7,2.53c-6.52,0-10-2.86-10.91-8.78H75.22a39.89,39.89,0,0,0,.39-5.65c0-8.38-4.52-15.23-15-15.23m39.17,7.38a54,54,0,0,0,.67-6.25H88.92V.53A25,25,0,0,0,81.6,1.6V36.51c0,8.11,4.52,11.37,11.64,11.37a16.61,16.61,0,0,0,6.19-1.06c.39-1.93.66-4.19.86-6.19a16.55,16.55,0,0,1-5.72,1c-3.52,0-5.65-1.66-5.65-6V19.35Zm96.5,0A56.24,56.24,0,0,0,197,13.1H185.42V.53A25,25,0,0,0,178.1,1.6V36.51c0,8.11,4.52,11.37,11.64,11.37a16.52,16.52,0,0,0,6.18-1.06c.4-1.93.67-4.19.87-6.19a16.55,16.55,0,0,1-5.72,1c-3.53,0-5.65-1.66-5.65-6V19.35Zm-48.08,7.38c.6-5.65,3.32-8.64,8.51-8.64s8,3.19,8,8.64ZM157.15,12c-11.64,0-16.23,7.85-16.23,17.76,0,11.37,5.92,18.15,18.16,18.15a25.13,25.13,0,0,0,10.77-2.13c.47-2.19.87-4.72,1.13-6.65a28.51,28.51,0,0,1-11.7,2.53c-6.52,0-10-2.86-10.91-8.78h23.34a38.44,38.44,0,0,0,.4-5.65c0-8.38-4.52-15.23-15-15.23M30.33,40.83a32.46,32.46,0,0,1-6.12.67c-10.11,0-16.5-5.86-16.5-17.76,0-10.91,5.92-17.09,16.83-17.09A36.15,36.15,0,0,1,36.11,8.51,28.21,28.21,0,0,0,37.44,1.8,39.86,39.86,0,0,0,24.54,0C9,0,0,8.64,0,24c0,14.1,8.18,24.14,23.67,24.14a40.08,40.08,0,0,0,14.1-2.46V22H30.33ZM119.11,12a62.32,62.32,0,0,0-13.3,1.86V47.08h7.32V18.75a36.84,36.84,0,0,1,5.78-.53c7.31,0,9,2.53,9,7.78V47.08h7.32V24.74c0-8-3.92-12.77-16.16-12.77"/><path class="cls-1" d="M82.69,74.2l-3.12-7.63H78.25l3.82,9.05c-.61,1.7-1.16,2.2-2.34,2.2a3.66,3.66,0,0,1-.59-.07c0,.31-.09.69-.11,1a3.68,3.68,0,0,0,.82.09c1.54,0,2.4-.75,3.1-2.48l4-9.83H85.65ZM73,74.56a7.5,7.5,0,0,1-1.9-.24V67.81a5.8,5.8,0,0,1,2-.38c2.28,0,3.17,1.37,3.17,3.53,0,2.38-1.13,3.6-3.3,3.6m.29-8.19a5.65,5.65,0,0,0-2.19.41V63.45a3.86,3.86,0,0,0-1.24.19v11.5a9,9,0,0,0,3,.48c3.12,0,4.67-1.69,4.67-4.66s-1.42-4.59-4.27-4.59m76.64,1.74a13.44,13.44,0,0,0,.18-1.65h-3.15V63.14a6.91,6.91,0,0,0-2,.29v9.2c0,2.14,1.23,3,3.17,3a4.65,4.65,0,0,0,1.69-.28c.11-.51.18-1.11.24-1.63a4.89,4.89,0,0,1-1.56.26c-1,0-1.54-.44-1.54-1.58V68.11Zm-11.37-2a17.44,17.44,0,0,0-3.63.49v8.77h2V68a9.93,9.93,0,0,1,1.57-.14c2,0,2.47.66,2.47,2v5.56h2V69.53c0-2.12-1.08-3.37-4.41-3.37m39,7.22a3.25,3.25,0,0,1-2,.67c-1.78,0-2.52-1.26-2.52-3,0-2,.94-3.19,2.92-3.19a8.79,8.79,0,0,1,1.6.17Zm0-7.08a7.85,7.85,0,0,0-1.49-.14c-3.36,0-5.06,1.75-5.06,4.84,0,2.94,1.6,4.63,4,4.63a2.77,2.77,0,0,0,2.59-1.33l.11,1.12h1.83V63.14a6.21,6.21,0,0,0-2,.27Zm5.6,3.75c.16-1.49.91-2.28,2.32-2.28a2,2,0,0,1,2.18,2.28Zm2.43-3.89c-3.17,0-4.42,2.07-4.42,4.68,0,3,1.61,4.79,4.95,4.79a7.14,7.14,0,0,0,2.94-.56c.12-.58.23-1.25.31-1.76a8,8,0,0,1-3.2.67c-1.77,0-2.72-.75-3-2.31h6.36a10.38,10.38,0,0,0,.11-1.5,3.72,3.72,0,0,0-4.08-4m9.22,0a12.51,12.51,0,0,0-3.41.49v8.77h2V67.91a10.37,10.37,0,0,1,1.47-.1,12,12,0,0,1,1.51.07,7.48,7.48,0,0,0,.18-1.65c-.44,0-1.13-.07-1.74-.07m-29.8,0a17.36,17.36,0,0,0-3.63.49v8.77h2V68a10.15,10.15,0,0,1,1.58-.14c2,0,2.46.66,2.46,2v5.56h2V69.53c0-2.12-1.07-3.37-4.4-3.37m-7.81,7.26a3.22,3.22,0,0,1-1.94.63c-1.77,0-2.52-1.26-2.52-3,0-2,1-3.19,3-3.19a8.5,8.5,0,0,1,1.43.1ZM150.66,71c0,2.94,1.6,4.63,4,4.63a2.82,2.82,0,0,0,2.56-1.26l.11,1h1.83V66.65a10.49,10.49,0,0,0-3.43-.49c-3.36,0-5.06,1.75-5.06,4.84m-19.95,2.42a3.24,3.24,0,0,1-1.94.63c-1.78,0-2.53-1.26-2.53-3,0-2,1-3.19,3-3.19a8.58,8.58,0,0,1,1.43.1ZM124.21,71c0,2.94,1.6,4.63,4,4.63a2.81,2.81,0,0,0,2.55-1.26l.11,1h1.83V66.65a10.47,10.47,0,0,0-3.42-.49c-3.36,0-5.07,1.75-5.07,4.84m-4.51-2.35-1-.4c-1.27-.53-2-1-2-2s.72-1.52,2.3-1.52a9.52,9.52,0,0,1,3,.51,6.5,6.5,0,0,0,.36-1.76,10.26,10.26,0,0,0-3.32-.51c-2.94,0-4.37,1.28-4.37,3.28s1.16,2.79,2.87,3.51l.92.38c1.71.72,2.4,1.2,2.4,2.22s-.95,1.55-2.64,1.55a8.6,8.6,0,0,1-3.31-.68,5.79,5.79,0,0,0-.35,1.77,8.94,8.94,0,0,0,3.72.67c3.08,0,4.66-1.39,4.66-3.4,0-1.7-1-2.7-3.26-3.65m-14.23-2.26a4,4,0,0,0-.56-1.85l-3-5.06a4,4,0,0,1-.47-1.23l-.13.22a3.93,3.93,0,0,0,0,4.05l2.42,4a3.91,3.91,0,0,1,0,4l-.13.21a4.34,4.34,0,0,0-.47-1.22l-2.22-3.7-1.42-2.37A4,4,0,0,1,99,62.3l-.13.22a3.91,3.91,0,0,0,0,4l2.43,4.06a3.93,3.93,0,0,1,0,4l-.13.21a3.61,3.61,0,0,0-.48-1.22l-3-5.06a4,4,0,0,1-.56-2.2c-3.23.82-5.47,2.55-5.47,4.56,0,2.8,4.33,5.06,9.66,5.06s9.66-2.26,9.66-5.06c0-2-2.24-3.74-5.47-4.56"/></g></g></svg>